<?xml version="1.0" encoding="utf-8"?>
<!-- Generator: Adobe Illustrator 16.0.0, SVG Export Plug-In . SVG Version: 6.00 Build 0)  -->
<!DOCTYPE svg PUBLIC "-//W3C//DTD SVG 1.1//EN" "http://www.w3.org/Graphics/SVG/1.1/DTD/svg11.dtd">
<svg version="1.1" id="Calque_1" xmlns="http://www.w3.org/2000/svg" xmlns:xlink="http://www.w3.org/1999/xlink" x="0px" y="0px"
	 width="50px" height="50px" viewBox="0 0 50 50" enable-background="new 0 0 50 50" xml:space="preserve">
<g>
	<g>
		<path fill="#AF9E8B" d="M16.827,15.645c1.274,0,2.308-1.046,2.308-2.338v-2.338c0-1.292-1.033-2.339-2.308-2.339
			c-1.275,0-2.307,1.047-2.307,2.339v2.338C14.52,14.598,15.552,15.645,16.827,15.645z M32.977,15.645
			c1.272,0,2.307-1.046,2.307-2.338v-2.338c0-1.292-1.033-2.339-2.307-2.339c-1.274,0-2.308,1.047-2.308,2.339v2.338
			C30.669,14.598,31.701,15.645,32.977,15.645z M38.743,12.137h-2.308v1.169c0,0-0.035,3.544-3.461,3.544
			c0,0-3.459-0.037-3.459-3.508l-0.037-1.206H20.25v1.169c0,0,0.036,3.544-3.424,3.544c0,0-3.496,0.037-3.496-3.508v-1.206h-2.27
			c-1.274,0-2.308,1.047-2.308,2.339v24.555c0,1.291,1.033,2.339,2.308,2.339h27.683c1.274,0,2.307-1.048,2.307-2.339V14.476
			C41.05,13.184,40.018,12.137,38.743,12.137z M38.743,39.031H11.06V20.323h27.683V39.031z M20.282,28.035v6.306h2.276v-9.352
			h-2.003c-0.27,0.577-0.641,0.881-1.115,1.274c-0.475,0.393-0.59,0.512-1.448,1.012v2.097c0.655-0.399,0.9-0.565,0.9-0.565
			S19.869,28.354,20.282,28.035z M26.959,30.391c-0.426,1.018-0.736,2.448-0.936,3.95h2.516c0.082-1.08,0.244-2.187,0.482-2.977
			c0.303-1.019,0.389-1.576,0.908-2.404c0.43-0.683,1.241-1.207,1.881-1.794v-2.202h-6.91v2.343h4.078
			C28.059,28.466,27.384,29.372,26.959,30.391z"/>
	</g>
</g>
</svg>
