<?xml version="1.0" encoding="utf-8"?>
<!-- Generator: Adobe Illustrator 16.0.0, SVG Export Plug-In . SVG Version: 6.00 Build 0)  -->
<!DOCTYPE svg PUBLIC "-//W3C//DTD SVG 1.1//EN" "http://www.w3.org/Graphics/SVG/1.1/DTD/svg11.dtd">
<svg version="1.1" id="Calque_1" xmlns="http://www.w3.org/2000/svg" xmlns:xlink="http://www.w3.org/1999/xlink" x="0px" y="0px"
	 width="22px" height="38px" viewBox="0 0 22 38" enable-background="new 0 0 22 38" xml:space="preserve">
<path fill="#D0C8C1" d="M15.818,21.77c0.228,0,0.412,0.185,0.412,0.412v13.678c0,0.229-0.186,0.412-0.412,0.412H2.141
	c-0.229,0-0.414-0.185-0.414-0.412V22.182c0-0.229,0.185-0.412,0.414-0.412H15.818 M16.436,20.04H1.523
	C0.683,20.04,0,20.725,0,21.563v14.914C0,37.314,0.683,38,1.523,38h14.913c0.84,0,1.522-0.686,1.522-1.523V21.563
	C17.959,20.725,17.275,20.04,16.436,20.04L16.436,20.04z"/>
<g>
	<path fill="#D0C8C1" d="M16.23,15.82c0,0.23-0.182,0.41-0.41,0.41H2.14c-0.23,0-0.41-0.18-0.41-0.41V2.14
		c0-0.23,0.18-0.41,0.41-0.41h11.91L15.779,0H1.52C0.68,0,0,0.68,0,1.52v14.92c0,0.84,0.68,1.52,1.52,1.52h14.919
		c0.84,0,1.521-0.68,1.521-1.52v-5.9l-1.729,1.73V15.82L16.23,15.82z"/>
	<path fill="#D0C8C1" d="M21.807,2.745l-2.582-2.584c-0.218-0.216-0.567-0.216-0.783,0l-8.155,8.155L7.08,5.111
		C6.903,4.934,6.585,4.966,6.369,5.183L3.94,7.611C3.724,7.828,3.692,8.146,3.869,8.322l6.129,6.13l0.051,0.051l0.072,0.072
		c0.177,0.176,0.495,0.144,0.711-0.072l2.429-2.429l8.546-8.546C22.023,3.312,22.023,2.961,21.807,2.745z"/>
</g>
</svg>
