<?xml version="1.0" encoding="utf-8"?>
<!-- Generator: Adobe Illustrator 16.0.0, SVG Export Plug-In . SVG Version: 6.00 Build 0)  -->
<!DOCTYPE svg PUBLIC "-//W3C//DTD SVG 1.1//EN" "http://www.w3.org/Graphics/SVG/1.1/DTD/svg11.dtd">
<svg version="1.1" id="Calque_1" xmlns="http://www.w3.org/2000/svg" xmlns:xlink="http://www.w3.org/1999/xlink" x="0px" y="0px"
	 width="850.39px" height="850.39px" viewBox="0 0 850.39 850.39" enable-background="new 0 0 850.39 850.39" xml:space="preserve">
<g>
	<g>
		<g>
			<defs>
				<path id="SVGID_1_" d="M495.707,182.638C334.62,171.118,215.484,253.27,207.13,289.673
					c-8.354,36.407-36.58,94.612-52.312,125.385c0,0-11.634,22.883-15.718,30.785c-4.102,7.912-12.374,22.971,5.903,44.053
					c18.268,21.09,52.297,66.523,258.42,41.088c206.159-25.398,324.762-144.294,319.469-211.207
					C717.613,252.874,656.789,194.121,495.707,182.638z M475.136,391.257c-54.556,4.36-126.257,12.499-210.935-26.882
					c0,0,65.762-24.987,132.457-26.583c66.687-1.572,118.335,10.613,126.796,19.042C531.947,365.25,529.701,386.876,475.136,391.257
					z"/>
			</defs>
			<clipPath id="SVGID_2_">
				<use xlink:href="#SVGID_1_"  overflow="visible"/>
			</clipPath>
			<polygon clip-path="url(#SVGID_2_)" fill="#551112" points="321.41,176.936 351.593,352.656 482.236,345.45 521.248,170.185 			
				"/>
		</g>
		<g>
			<defs>
				<path id="SVGID_3_" d="M495.707,182.638C334.62,171.118,215.484,253.27,207.13,289.673
					c-8.354,36.407-36.58,94.612-52.312,125.385c0,0-11.634,22.883-15.718,30.785c-4.102,7.912-12.374,22.971,5.903,44.053
					c18.268,21.09,52.297,66.523,258.42,41.088c206.159-25.398,324.762-144.294,319.469-211.207
					C717.613,252.874,656.789,194.121,495.707,182.638z M475.136,391.257c-54.556,4.36-126.257,12.499-210.935-26.882
					c0,0,65.762-24.987,132.457-26.583c66.687-1.572,118.335,10.613,126.796,19.042C531.947,365.25,529.701,386.876,475.136,391.257
					z"/>
			</defs>
			<clipPath id="SVGID_4_">
				<use xlink:href="#SVGID_3_"  overflow="visible"/>
			</clipPath>
			
				<linearGradient id="SVGID_5_" gradientUnits="userSpaceOnUse" x1="606.9399" y1="154.5933" x2="958.2396" y2="173.9431" gradientTransform="matrix(0.9911 -0.1328 -0.1328 -0.9911 -405.5663 712.2147)">
				<stop  offset="0" style="stop-color:#CD4242"/>
				<stop  offset="1" style="stop-color:#9A1915"/>
			</linearGradient>
			<polygon clip-path="url(#SVGID_4_)" fill="url(#SVGID_5_)" points="521.976,376.557 232.947,235.483 124.765,338.948 
				107.629,723.273 843.251,373.887 			"/>
		</g>
		<g>
			<defs>
				<path id="SVGID_6_" d="M495.707,182.638C334.62,171.118,215.484,253.27,207.13,289.673
					c-8.354,36.407-36.58,94.612-52.312,125.385c0,0-11.634,22.883-15.718,30.785c-4.102,7.912-12.374,22.971,5.903,44.053
					c18.268,21.09,52.297,66.523,258.42,41.088c206.159-25.398,324.762-144.294,319.469-211.207
					C717.613,252.874,656.789,194.121,495.707,182.638z M475.136,391.257c-54.556,4.36-126.257,12.499-210.935-26.882
					c0,0,65.762-24.987,132.457-26.583c66.687-1.572,118.335,10.613,126.796,19.042C531.947,365.25,529.701,386.876,475.136,391.257
					z"/>
			</defs>
			<clipPath id="SVGID_7_">
				<use xlink:href="#SVGID_6_"  overflow="visible"/>
			</clipPath>
			<path clip-path="url(#SVGID_7_)" fill="#841814" d="M514.302,354.384l185.031-121.117c0,0,43.811,45.602,41.484,77.528
				c-2.352,31.911-29.561,70.134-29.561,70.134l-189.283-4.372L514.302,354.384z"/>
		</g>
		<g>
			<defs>
				<path id="SVGID_8_" d="M495.707,182.638C334.62,171.118,215.484,253.27,207.13,289.673
					c-8.354,36.407-36.58,94.612-52.312,125.385c0,0-11.634,22.883-15.718,30.785c-4.102,7.912-12.374,22.971,5.903,44.053
					c18.268,21.09,52.297,66.523,258.42,41.088c206.159-25.398,324.762-144.294,319.469-211.207
					C717.613,252.874,656.789,194.121,495.707,182.638z M475.136,391.257c-54.556,4.36-126.257,12.499-210.935-26.882
					c0,0,65.762-24.987,132.457-26.583c66.687-1.572,118.335,10.613,126.796,19.042C531.947,365.25,529.701,386.876,475.136,391.257
					z"/>
			</defs>
			<clipPath id="SVGID_9_">
				<use xlink:href="#SVGID_8_"  overflow="visible"/>
			</clipPath>
			
				<linearGradient id="SVGID_10_" gradientUnits="userSpaceOnUse" x1="860.1118" y1="467.9448" x2="991.0985" y2="272.9498" gradientTransform="matrix(0.9911 -0.1328 -0.1328 -0.9911 -405.5663 712.2147)">
				<stop  offset="0" style="stop-color:#3C1114"/>
				<stop  offset="1" style="stop-color:#9A1915"/>
			</linearGradient>
			<path clip-path="url(#SVGID_9_)" fill="url(#SVGID_10_)" d="M250.775,242.572c0,0-106.848,63.675,13.426,121.803l257.773,12.182
				l429.955,12.799L472.228,93.209L250.775,242.572z"/>
		</g>
	</g>
	<g>
		<g>
			<path fill="#D8C4AD" d="M314.971,667.732c0,19.984-15.579,30.215-37.453,30.215h-46.265c-3.62,0-4.563-1.732-4.563-4.564v-94.576
				c0-2.832,0.944-4.563,4.563-4.563h44.062c25.65,0,36.667,13.691,36.667,28.482c0,15.895-10.071,20.93-11.487,21.561
				C301.752,644.757,314.971,650.738,314.971,667.732z M289.95,665.373c0-7.396-5.508-9.6-13.061-9.6h-3.62
				c-3.619,0-4.563-1.73-4.563-4.564V639.25c0-2.832,0.944-4.564,4.563-4.564h2.046c9.127,0,13.061-3.303,13.061-9.439
				c0-7.082-4.878-8.814-13.061-8.814h-23.919v59.17h26.437C285.544,675.601,289.95,672.453,289.95,665.373z"/>
			<path fill="#D8C4AD" d="M416.467,697.947h-16.522c-3.462,0-4.722-0.945-5.98-4.723l-4.406-12.432h-38.554l-4.406,12.432
				c-1.259,3.777-2.518,4.723-5.979,4.723h-16.523c-3.462,0-3.462-2.52-2.675-4.406l34.935-94.262
				c1.26-3.305,2.99-4.879,6.452-4.879h15.107c3.462,0,5.036,1.574,6.452,4.879l34.776,94.262
				C419.929,695.429,419.929,697.947,416.467,697.947z M382.162,658.763l-11.802-34.777l-11.803,34.777H382.162z"/>
			<path fill="#D8C4AD" d="M467.292,700.306c-18.727,0-42.172-10.857-42.172-35.563v-37.139c0-24.705,23.448-35.564,42.172-35.564
				c19.514,0,38.869,9.914,40.916,29.9c0,3.775-1.26,4.563-4.879,4.563h-15.107c-3.305,0-3.461-2.99-4.721-4.879
				c-3.305-5.193-7.711-7.553-16.209-7.553c-10.385,0-17.467,5.82-17.467,15.734v32.732c0,10.07,7.082,15.736,17.467,15.736
				c8.498,0,15.266-3.146,16.523-10.701c0.473-3.146,0.787-5.664,4.25-5.664h15.42c3.463,0,4.723,1.572,4.723,5.35
				C508.208,687.56,486.806,700.306,467.292,700.306z"/>
			<path fill="#D8C4AD" d="M607.658,598.964v94.418c0,3.619-1.732,4.564-4.564,4.564h-15.578c-2.834,0-4.563-0.945-4.563-4.564
				V657.82h-35.094v35.563c0,3.619-1.572,4.564-4.563,4.564h-15.58c-2.832,0-4.563-0.945-4.563-4.564v-94.418
				c0-3.619,1.73-4.563,4.563-4.563h15.58c2.99,0,4.563,0.943,4.563,4.563v35.564h35.094v-35.564c0-3.619,1.729-4.563,4.563-4.563
				h15.578C605.925,594.4,607.658,595.345,607.658,598.964z"/>
		</g>
	</g>
</g>
</svg>
