<?xml version="1.0" encoding="utf-8"?>
<!-- Generator: Adobe Illustrator 16.0.0, SVG Export Plug-In . SVG Version: 6.00 Build 0)  -->
<!DOCTYPE svg PUBLIC "-//W3C//DTD SVG 1.1//EN" "http://www.w3.org/Graphics/SVG/1.1/DTD/svg11.dtd">
<svg version="1.1" id="Calque_1" xmlns="http://www.w3.org/2000/svg" xmlns:xlink="http://www.w3.org/1999/xlink" x="0px" y="0px"
	 width="50px" height="50px" viewBox="0 0 50 50" enable-background="new 0 0 50 50" xml:space="preserve">
<g>
	<g>
		<path fill="#AF9E8B" d="M25.042,8.266C15.925,8.266,8.534,15.757,8.534,25c0,9.242,7.391,16.734,16.507,16.734
			c9.118,0,16.424-7.492,16.424-16.734C41.466,15.757,34.794,8.266,25.042,8.266z M31.523,13.458c0,0,0.238-0.887,0.322-1.519
			c0.285-0.136,1.442,0.676,2.424,1.717c-0.662,2.485-2.207,2.336-2.207,2.336S30.789,15.968,30.938,15L31.523,13.458z
			 M28.093,14.974c0.147-0.298,0.517-0.447,0.884-0.596s0,0.671-0.074,1.118c-0.072,0.446-0.146,0.671,0.367,1.192
			c0.516,0.522-0.955,0.149-1.321-0.149C27.578,16.241,28.093,14.974,28.093,14.974z M21.434,29.51
			c-0.074,0.373-0.768,1.266-1.062,1.863c-0.294,0.596-0.44,0.82-0.809,1.118s-0.588,0.819-0.588,0.819l0.095,1.269
			c0,0,0.367,0.819,0.588,1.192c0.22,0.373-0.441,2.386-0.441,2.386c-0.637-0.124-1.246-0.298-1.467-0.896
			c-0.221-0.597-0.539-0.597-0.465-1.268c0.073-0.67-1.03-1.49-1.25-1.863c-0.221-0.373-0.514-0.895-0.514-1.267
			c0-0.373-0.809-0.896-0.809-0.896S13.24,31.298,13.02,31c-0.221-0.298-0.441-1.564-0.515-2.087
			c-0.074-0.522,0.221-1.864,0.221-1.864s0.588-0.447,0.221-0.82c-0.368-0.373-0.441-1.34-0.441-1.34l-0.662-0.746
			c0,0-0.514-0.746-0.588-1.118c-0.073-0.373,0-0.597,0.074-0.969c0.073-0.373-0.147-1.043-0.147-1.416
			c2.745-6.829,7.353-8.424,7.353-8.424l0.368,1.565c0,0-0.809,0.224-1.25,0.075c-0.441-0.149-0.662-0.149-0.662-0.149l-0.588,0.82
			c0,0-0.221,0.522-0.294,0.82c-0.074,0.298,0.147,0.746,0.147,0.746s1.03,0.074,1.03-0.224c0-0.298-0.147-0.448-0.147-0.448
			l-0.15-0.52c0,0,0.662-0.373,2.427-0.224c1.765,0.149,1.103,1.417,1.837,1.714c0.735,0.298-0.588,1.342-0.882,1.938
			c-0.294,0.597-0.734-0.745-0.734-0.745s0.439-0.522-0.294-0.671c-0.735-0.149-0.882,0.82-0.515,0.745
			c0.368-0.074,0.441,0.447,0.368,0.82c-0.074,0.373-0.074,0.82-0.441,1.64c-0.368,0.82-1.765,0.82-1.765,0.82
			s0.221,0.373,0.441,0.82c0.221,0.447-0.074,1.491-0.074,1.789s-0.882-0.522-1.03-1.267c-0.147-0.746-0.588-0.472-0.882-0.397
			c-0.294,0.074-1.25,0.298-1.397-0.075s-1.471,0.695-1.838,0.919s-0.221,0.82,0.368,0.522s1.103-0.075,0.956,0.522
			c-0.147,0.596-0.735,0.224-0.662,0.596c0.074,0.373,0.662,0.746,0.809,1.268c0.147,0.522,1.544-0.224,1.986-0.447
			c0.441-0.224,1.691-0.447,1.838,0.149c0.147,0.598,1.796,1.118,2.311,1.268c0.515,0.148,1.544,0.225,2.132,0.819
			C22.537,28.02,21.506,29.137,21.434,29.51z M24.49,12.067c-0.074,0.746-1.348,1.864-1.201,2.162
			c0.147,0.298,0.1,2.609-0.931,1.491c-1.029-1.118-2.06-2.684-1.985-3.43c0.016-0.15,0.032-0.384,0.049-0.644
			c1.562-1.469,5.083-1.168,5.27-0.821C25.25,11.57,24.563,11.322,24.49,12.067z M26.182,16.465
			c-0.221-0.373,0.514-0.596,0.514-0.596c1.029,0.224,0.638,0.969,0.563,1.267C27.188,17.434,26.402,16.838,26.182,16.465z
			 M37.8,25.36c0,0,0.563,0.847,1.373,0.796c-0.53,6.232-5.661,10.236-5.661,10.236c-0.785-0.795-0.395-1.492-0.395-1.492
			l0.474-1.192l0.122-2.013c0,0-0.252-2.086-2.212-1.092c-2.108,0.545-1.228,0.801-3.358,0.951
			c-2.133,0.148-1.324-4.205-1.324-4.205c-0.123-1.791,0.197-1.343,0.197-2.734c0-1.392,4.51-0.596,4.51-0.596
			c2.94,1.988,3.334-0.448,3.334-0.448l2.156-0.794l0.195-0.994l-1.176-1.392l-1.766-0.795c0,0-0.81,0.522,0,1.789
			c0,0-0.271,1.441-0.932,1.068l-1.814-2.261c0,0-0.611,1.068-1.592,1.664c-0.98,0.597-2.647-0.024-2.647-0.024
			s-0.539-1.69,0.489-2.211l1.521-0.025c0,0-0.318-0.87-0.123-1.665c0.195-0.794,0.637-0.099,1.421-0.695
			c0.785-0.596,1.324,1.167,2.501,0.969c1.178-0.198,0.588-0.398,1.372-0.795c0.784-0.398,1.372,0.795,1.372,0.795l1.569,0.199
			c0,0-0.991-2.678-1.353-3.075c-0.043-0.009-0.087-0.021-0.119-0.006c0.021-0.066,0.063-0.056,0.119,0.006
			c0.916,0.187,4.053,5.637,3.123,8.912c-0.324-0.147-0.595-0.271-0.595-0.271h-1.961L37.8,25.36z"/>
	</g>
</g>
</svg>
