<?xml version="1.0" encoding="utf-8"?>
<!-- Generator: Adobe Illustrator 16.0.0, SVG Export Plug-In . SVG Version: 6.00 Build 0)  -->
<!DOCTYPE svg PUBLIC "-//W3C//DTD SVG 1.1//EN" "http://www.w3.org/Graphics/SVG/1.1/DTD/svg11.dtd">
<svg version="1.1" id="Calque_1" xmlns="http://www.w3.org/2000/svg" xmlns:xlink="http://www.w3.org/1999/xlink" x="0px" y="0px"
	 width="140px" height="140px" viewBox="0 0 140 140" enable-background="new 0 0 140 140" xml:space="preserve">
<rect fill="#D0C8C1" width="140" height="140"/>
<path fill="#FFFFFF" d="M101.711,66.053c-0.493-7.291-7.035-13.764-24.559-15.214c-7.614-0.633-14.396,0.67-19.696,2.677v0.007
	c-3.51,1.528-8.926,5.493-9.134,9.706c-0.101,2.029,1.312,4.012,4.197,5.872c0.347,0.224,0.694,0.432,1.042,0.632
	c2.592-0.787,7.592-2.067,12.622-2.129c7.26-0.093,12.861,1.304,13.779,2.229c0.625,0.633,0.687,1.944-1.257,2.831l0.016,0.023
	c-0.309,0.162-4.236,2.129-9.776,2.809c-5.138,0.625-11.673,0.139-18.007-3.941c-3.827-2.478-5.686-5.325-5.532-8.473
	c0.007-0.085,0.007-0.177,0.023-0.262c-1.126,3.958-4.012,9.745-5.664,12.885c0,0-1.296,2.477-1.75,3.332
	c-0.455,0.855-1.374,2.484,0.586,4.799c1.959,2.322,5.609,7.307,28.075,4.799S102.205,73.336,101.711,66.053z"/>
</svg>
