<?xml version="1.0" encoding="utf-8"?>
<!-- Generator: Adobe Illustrator 16.0.0, SVG Export Plug-In . SVG Version: 6.00 Build 0)  -->
<!DOCTYPE svg PUBLIC "-//W3C//DTD SVG 1.1//EN" "http://www.w3.org/Graphics/SVG/1.1/DTD/svg11.dtd">
<svg version="1.1" id="Calque_2" xmlns="http://www.w3.org/2000/svg" xmlns:xlink="http://www.w3.org/1999/xlink" x="0px" y="0px"
	 width="50px" height="450px" viewBox="0 0 50 450" enable-background="new 0 0 50 450" xml:space="preserve">
<g>
	<g>
		<path fill="#F6F2EF" d="M33.779,32.31l-5.415-5.473l0.11-0.087c1.114-1.364,1.754-3.123,1.754-5.016
			c0-4.229-3.283-7.658-7.542-7.658c-4.259,0-7.653,3.428-7.653,7.658c0,4.229,3.395,7.781,7.653,7.781
			c1.057,0,2.055-0.219,2.958-0.612l0.123-0.098l5.615,6.011c0.33,0.346,0.867,0.346,1.197,0l1.199-1.253
			C34.109,33.217,34.109,32.656,33.779,32.31z M22.674,26.756c-2.766,0-4.97-2.226-4.97-4.972c0-2.747,2.204-4.973,4.97-4.973
			c2.765,0,4.912,2.226,4.912,4.973C27.586,24.53,25.438,26.756,22.674,26.756z"/>
	</g>
</g>
<g>
	<g>
		<path fill="#F6F2EF" d="M16.938,64.938v4h18v-4H16.938z M16.938,74.938h18v-4h-18V74.938z M16.938,80.938h18v-4h-18V80.938z"/>
	</g>
</g>
<g>
	<g>
		<path fill="#F6F2EF" d="M29,415v4h5.938v-4H29z M29,424.938h5.938v-4.001H29V424.938z M27,415H16.938v9.938H27V415z M16.938,431
			h18v-4h-18V431z"/>
	</g>
</g>
<g>
	<g>
		<path fill="#F6F2EF" d="M17,119.958h4v-4h-4V119.958z M17,125.958h4v-4h-4V125.958z M17,131.958h4v-4h-4V131.958z M23,119.958h4
			v-4h-4V119.958z M23,125.958h4v-4h-4V125.958z M23,131.958h4v-4h-4V131.958z M29,115.958v4h4v-4H29z M29,125.958h4v-4h-4V125.958z
			 M29,131.958h4v-4h-4V131.958z"/>
	</g>
</g>
<path fill="#AF2B24" d="M25,168.926c3.313,0,6,2.686,6,6c0,3.313-2.688,6-6,6c-3.313,0-6-2.687-6-6
	C19,171.612,21.687,168.926,25,168.926z"/>
<g>
	<g>
		<polygon fill="#F6F2EF" points="28,173.926 26,173.926 26,171.926 24,171.926 24,173.926 22,173.926 22,175.926 24,175.926 
			24,177.926 26,177.926 26,175.926 28,175.926 		"/>
	</g>
</g>
<path fill="#AF2B24" d="M25,219c3.313,0,6,2.686,6,6c0,3.313-2.688,6-6,6c-3.313,0-6-2.688-6-6C19,221.686,21.687,219,25,219z"/>
<path fill="#AF2B24" d="M25,271.989c1.45,0,2.625,1.176,2.625,2.625c0,1.448-1.175,2.625-2.625,2.625s-2.625-1.177-2.625-2.625
	C22.375,273.165,23.55,271.989,25,271.989z"/>
<g>
	<g>
		<rect x="22" y="224" fill="#F6F2EF" width="6" height="2"/>
	</g>
</g>
<path fill="#A2968C" d="M24.167,316.488c-4.379,0-8.165,3.504-8.165,7.826c0,4.324,3.786,7.75,8.165,7.75
	c3.122,0,5.821-1.701,7.115-4.289c0.521-1.043-1.63-1.491-2.119-0.594c-1.006,1.781-2.879,2.396-4.996,2.396
	c-3.188,0-5.687-2.271-5.687-5.264c0-3.097,2.551-5.369,5.687-5.369c2.582,0,2.627,0.684,2.694,0.615
	c-0.67,0.676-2.209,2.258-2.209,2.258c-0.915,0.902,0.119,0.89,0.119,0.89l6.702,0.003c0.67,0.105,0.51-0.488,0.51-0.488l0.013-6.74
	c-0.015-0.935-0.929-0.021-0.929-0.021l-2.301,2.264C28.768,317.725,27.309,316.438,24.167,316.488z"/>
<g>
	<g>
		<polygon fill="#A2968C" points="30.896,371.014 28.066,368.184 24.531,371.721 20.996,368.184 18.167,371.014 21.703,374.548 
			18.167,378.083 20.996,380.912 24.531,377.376 28.066,380.912 30.896,378.083 27.359,374.548 		"/>
	</g>
</g>
</svg>
